<?xml version="1.0" standalone="no"?>
<!DOCTYPE svg PUBLIC "-//W3C//DTD SVG 20010904//EN"
 "http://www.w3.org/TR/2001/REC-SVG-20010904/DTD/svg10.dtd">
<svg version="1.0" xmlns="http://www.w3.org/2000/svg"
 width="512.000000pt" height="512.000000pt" viewBox="0 0 512.000000 512.000000"
 preserveAspectRatio="xMidYMid meet">
<metadata>
Created by potrace 1.16, written by Peter Selinger 2001-2019
</metadata>
<g transform="translate(0.000000,512.000000) scale(0.100000,-0.100000)"
fill="#000000" stroke="none">
<path d="M2425 4761 c-46 -28 -83 -77 -90 -119 -13 -78 -14 -80 -47 -87 -53
-12 -56 -19 -13 -30 36 -10 42 -17 55 -60 l16 -48 16 42 c15 37 20 41 50 41
18 0 44 3 57 7 l24 6 -29 -52 c-16 -28 -47 -75 -70 -104 -33 -42 -49 -54 -88
-65 -241 -64 -438 -442 -336 -642 13 -25 21 -46 19 -48 -2 -2 -38 -4 -79 -6
-85 -2 -102 -9 -215 -91 -42 -30 -83 -55 -91 -55 -21 0 -17 -14 15 -67 29 -48
48 -105 71 -215 15 -74 71 -159 156 -236 35 -33 64 -67 64 -76 0 -9 -20 -37
-45 -63 -25 -25 -45 -49 -45 -53 0 -4 -18 -15 -40 -25 -54 -24 -95 -72 -136
-159 -26 -54 -42 -75 -69 -88 -63 -33 -104 -152 -112 -328 -4 -101 -8 -119
-30 -152 -59 -87 -70 -205 -29 -319 l23 -66 -102 -7 c-57 -4 -126 -13 -154
-22 -72 -21 -149 -87 -186 -159 -28 -55 -30 -66 -30 -170 0 -105 2 -114 33
-178 57 -116 226 -262 416 -360 l61 -31 -72 -8 c-39 -4 -118 -19 -175 -33
-122 -30 -132 -34 -126 -41 20 -20 350 -65 583 -79 55 -3 108 -8 117 -11 9 -3
33 -27 52 -54 35 -48 38 -50 84 -50 26 0 101 15 167 34 66 19 161 45 210 57
111 27 195 68 232 113 l27 35 29 -34 c15 -19 56 -48 90 -65 49 -24 325 -105
489 -144 41 -9 74 9 113 63 l36 49 97 6 c270 18 540 51 603 74 23 9 22 10 -16
20 -65 18 -288 70 -315 74 -20 2 -7 13 70 57 184 104 343 239 387 329 26 52
28 67 28 167 0 105 -2 114 -33 177 -55 113 -137 167 -289 193 -61 10 -77 33
-69 97 16 137 18 206 7 259 -13 60 -97 221 -186 354 -32 47 -67 117 -86 170
-45 130 -101 203 -178 234 -17 8 -31 19 -31 26 0 7 -15 26 -32 42 -79 71 -80
62 9 150 93 91 124 149 152 280 21 97 39 140 78 187 l24 29 -43 25 c-24 14
-64 43 -89 64 -66 54 -106 68 -194 68 -41 0 -75 2 -75 4 0 2 9 25 20 50 29 69
34 131 16 216 -23 112 -87 230 -167 311 -65 64 -170 129 -210 129 -11 0 -41
31 -75 78 -31 42 -62 83 -67 90 -9 11 7 13 84 10 52 -2 101 -7 111 -12 13 -6
18 -1 23 23 5 26 11 30 43 33 l37 4 -26 11 c-15 7 -41 32 -59 56 -32 46 -83
80 -135 91 -24 5 -21 1 17 -19 25 -13 56 -37 68 -52 l22 -28 -107 -3 c-59 -1
-110 -1 -112 2 -2 2 -11 35 -19 72 -18 87 -50 124 -108 124 -23 0 -55 -8 -71
-19z m112 -73 c32 -30 29 -54 -8 -67 -36 -12 -81 5 -99 39 -9 16 -6 22 17 34
39 21 63 20 90 -6z m-88 -64 c12 -15 21 -31 21 -35 0 -5 -25 -9 -55 -9 -48 0
-55 3 -55 19 0 57 52 72 89 25z m186 -251 c39 -59 82 -127 96 -150 23 -38 28
-41 39 -28 18 22 38 19 96 -14 162 -93 279 -363 214 -491 l-20 -39 -60 38
c-191 124 -482 144 -756 52 -46 -16 -101 -40 -122 -55 -21 -14 -43 -26 -49
-26 -5 0 -18 18 -28 39 -54 121 37 352 184 464 66 50 102 58 133 30 10 -9 18
-12 18 -6 0 6 29 53 65 106 35 52 74 116 87 141 12 25 24 46 27 46 4 0 38 -48
76 -107z m132 -627 c118 -32 248 -95 230 -112 -2 -3 -58 13 -123 35 -149 50
-264 66 -377 51 -103 -14 -215 -42 -292 -74 -56 -23 -92 -25 -79 -5 11 18 124
69 196 89 150 41 330 47 445 16z m-197 -98 c0 -6 6 -19 14 -27 23 -26 28 -64
12 -86 -14 -17 -17 -18 -26 -5 -6 8 -8 32 -4 53 3 20 3 37 0 37 -3 0 -17 -16
-32 -35 -32 -43 -27 -74 16 -105 l31 -22 33 23 c60 41 62 53 16 111 -22 28
-40 55 -40 61 0 25 238 -22 320 -63 87 -44 113 -78 118 -153 2 -34 -1 -82 -7
-107 -5 -24 -8 -46 -6 -49 10 -10 53 31 64 61 46 124 45 122 91 146 32 17 56
22 83 19 39 -5 177 -81 177 -97 0 -5 -9 -24 -19 -42 -11 -18 -29 -71 -41 -118
-12 -47 -33 -107 -48 -133 -27 -51 -126 -149 -194 -194 l-40 -27 -25 29 c-27
30 -27 27 -7 181 4 33 2 59 -6 74 -12 22 -14 19 -31 -46 -9 -38 -24 -94 -32
-125 -19 -69 -11 -108 32 -179 30 -49 37 -82 25 -114 -5 -14 -10 -14 -42 0
-74 30 -127 104 -139 190 -8 61 -23 37 -23 -40 0 -75 21 -111 95 -155 l56 -34
-52 -25 c-29 -14 -72 -45 -96 -68 -24 -24 -43 -40 -43 -35 0 11 60 94 79 108
34 25 -1 24 -44 -1 -57 -34 -92 -99 -111 -210 -23 -128 3 -219 84 -303 68 -70
205 -105 275 -69 24 13 27 13 27 0 0 -27 -19 -52 -55 -74 -30 -19 -47 -22
-108 -18 -143 7 -270 97 -340 241 -54 108 -77 242 -86 485 -5 111 -12 206 -16
210 -13 12 3 -358 20 -453 22 -126 71 -281 107 -338 72 -113 183 -178 315
-185 69 -4 89 -1 127 17 79 39 109 119 62 166 -17 17 -20 27 -13 34 17 17 31
13 59 -16 50 -55 44 -110 -20 -176 -69 -71 -183 -94 -307 -62 -206 53 -335
188 -423 445 -75 218 -123 310 -163 310 -20 0 -20 -1 5 -31 36 -42 33 -55 -6
-26 -41 31 -112 67 -132 67 -8 0 -22 -7 -31 -16 -9 -9 -18 -15 -20 -12 -9 9
13 27 62 52 91 46 153 113 153 166 0 12 -8 35 -17 53 l-17 32 -7 -52 c-4 -28
-16 -65 -28 -82 -26 -36 -89 -87 -124 -100 -25 -10 -27 -8 -36 26 -9 31 -7 40
14 67 59 77 69 155 35 266 -11 36 -20 75 -20 88 0 12 -4 22 -9 22 -17 0 -21
-66 -9 -137 11 -70 11 -72 -15 -112 l-27 -41 -50 36 c-140 101 -195 176 -234
322 -14 51 -34 108 -45 126 l-21 33 53 35 c83 56 113 68 163 68 85 0 115 -31
152 -155 8 -27 55 -66 65 -55 2 3 0 35 -6 71 -5 36 -7 78 -3 93 10 41 80 111
134 134 98 42 322 77 322 50z m591 -830 c17 -19 25 -34 18 -37 -15 -5 -63 32
-67 53 -5 26 17 19 49 -16z m-1151 13 c0 -11 -58 -61 -71 -61 -12 0 -3 17 24
48 21 22 47 30 47 13z m28 -153 c7 -29 13 -62 15 -73 1 -11 9 -20 16 -20 8 0
18 -11 21 -25 4 -14 28 -70 52 -125 45 -98 61 -157 134 -485 49 -220 80 -312
122 -361 35 -40 97 -79 128 -79 10 0 32 -5 49 -11 26 -10 42 -8 97 10 88 29
145 87 183 184 16 40 33 77 37 83 5 7 46 15 91 19 87 8 150 26 178 51 16 14
19 14 32 -8 30 -45 50 -127 43 -171 -14 -87 -56 -176 -114 -238 -52 -57 -89
-85 -98 -77 -2 3 4 13 14 24 76 85 92 105 92 115 0 6 -17 -4 -39 -24 -85 -76
-199 -124 -321 -134 l-76 -6 -14 42 c-17 53 -73 105 -98 92 -27 -14 -50 -43
-57 -72 -5 -19 0 -33 17 -52 38 -42 80 -40 108 6 l20 32 0 -27 c0 -16 -9 -33
-22 -42 -31 -22 -91 -20 -112 3 -13 15 -36 19 -124 24 -136 6 -236 37 -327
101 -61 42 -65 44 -46 17 69 -96 200 -151 362 -151 73 0 87 -3 121 -26 32 -23
45 -26 88 -22 28 3 58 12 68 21 10 9 51 21 93 27 83 12 170 35 211 56 42 22
36 -5 -6 -33 -69 -45 -166 -75 -299 -93 -155 -22 -385 22 -539 102 -141 73
-238 201 -238 312 1 69 31 175 77 264 47 92 47 93 77 85 43 -11 111 -6 138 9
21 11 20 13 -29 19 -100 13 -149 65 -178 194 -26 109 -42 126 -81 84 -18 -20
-18 -20 9 -14 24 6 27 4 27 -19 0 -21 -5 -26 -24 -26 -32 0 -70 58 -91 140
-23 94 -38 113 -81 105 -46 -8 -53 12 -23 64 23 41 97 100 176 140 54 27 61
27 75 -6 l12 -28 4 30 c4 32 20 57 31 50 4 -2 13 -28 19 -57z m1082 35 c0 -44
14 -58 28 -28 6 14 17 25 23 25 6 0 52 -23 101 -51 119 -68 161 -125 188 -252
7 -37 24 -72 49 -104 34 -44 91 -135 91 -146 0 -3 -16 -8 -35 -11 -19 -4 -49
-13 -67 -21 l-33 -14 55 -1 c87 -1 132 -27 166 -96 32 -66 44 -169 25 -226
l-11 -35 -40 38 c-58 55 -142 72 -213 44 -16 -7 -17 -4 -11 21 4 16 23 61 43
99 30 58 42 72 71 82 l35 12 -35 0 c-57 1 -130 -57 -165 -131 l-22 -47 -32 45
c-30 41 -32 49 -26 94 4 28 2 72 -5 102 -11 47 -10 59 9 107 12 29 20 56 17
58 -6 6 -45 -32 -69 -66 -16 -24 -17 -24 -36 -7 -15 13 -21 34 -23 75 l-3 56
-18 -32 c-22 -42 -144 -135 -171 -131 -12 2 -23 14 -28 33 -9 34 6 161 27 232
8 25 12 49 10 53 -2 3 2 26 9 51 9 31 19 45 34 47 15 2 20 10 19 35 0 42 21
117 33 117 6 0 10 -12 10 -27z m-80 -53 c0 -5 -2 -10 -4 -10 -3 0 -8 5 -11 10
-3 6 -1 10 4 10 6 0 11 -4 11 -10z m-864 -92 c7 -10 -20 -38 -38 -38 -12 0
-10 24 4 38 15 15 25 15 34 0z m804 -19 c0 -23 -13 -25 -31 -3 -10 13 -10 17
1 24 18 11 30 3 30 -21z m-20 -40 c0 -5 -8 -9 -17 -10 -15 0 -14 -3 5 -16 12
-8 22 -19 22 -24 0 -12 -37 -11 -61 1 -16 9 -17 14 -8 33 7 12 17 25 22 29 12
8 37 -1 37 -13z m-740 1 c0 -11 -33 -30 -51 -30 -8 0 -5 7 6 20 19 21 45 27
45 10z m45 -39 c-3 -6 -19 -18 -36 -26 -25 -13 -29 -13 -29 -1 0 19 53 57 64
46 4 -4 5 -13 1 -19z m-555 -26 c9 -11 10 -22 1 -42 -6 -16 -12 -43 -13 -60
-3 -42 -11 -41 -42 0 -32 41 -33 64 -4 94 25 27 41 29 58 8z m593 -46 c-14
-12 -75 -29 -84 -23 -13 8 -2 23 35 45 29 18 32 18 44 2 6 -9 9 -20 5 -24z
m637 23 c30 -24 18 -42 -26 -42 -29 0 -34 3 -34 23 0 42 23 49 60 19z m-1152
-66 c3 -51 1 -58 -12 -47 -21 18 -48 80 -42 97 4 9 15 14 28 12 21 -3 23 -9
26 -62z m-178 -9 c0 -59 -6 -72 -27 -56 -16 14 -17 81 -1 97 22 22 28 13 28
-41z m718 -2 c2 -16 -6 -23 -39 -33 -35 -11 -44 -11 -51 0 -11 18 38 60 66 56
12 -2 22 -11 24 -23z m587 13 c14 -6 25 -19 25 -30 0 -14 -8 -18 -35 -18 -30
0 -35 3 -35 23 0 21 7 37 16 37 2 0 15 -5 29 -12z m-573 -75 c29 -26 23 -50
-14 -56 -18 -3 -41 -8 -50 -12 -26 -10 -24 25 3 59 24 30 36 32 61 9z m588
-13 c0 -16 -7 -20 -35 -20 -22 0 -35 5 -35 13 0 20 10 27 42 27 21 0 28 -5 28
-20z m-1330 -55 c12 -4 26 0 36 9 8 9 24 16 35 16 11 0 29 5 39 10 24 13 76
-31 126 -104 31 -46 34 -48 34 -24 0 41 21 78 47 84 13 4 25 5 27 3 8 -10 -14
-160 -27 -185 -21 -41 -112 -112 -161 -125 -36 -10 -131 -8 -176 2 -25 6 -17
-23 13 -45 34 -26 123 -27 179 -3 l38 16 -35 -70 c-56 -111 -141 -189 -205
-189 -30 0 -76 50 -89 96 -19 67 -14 174 10 213 17 29 24 33 54 29 19 -2 35
-2 35 1 0 2 -12 34 -26 70 -24 59 -26 75 -21 149 7 97 15 115 33 79 8 -14 23
-28 34 -32z m1328 -12 c3 -19 -1 -23 -21 -23 -25 0 -42 23 -31 41 11 19 49 5
52 -18z m-557 -24 c13 -26 14 -26 -43 -34 -42 -6 -48 -5 -48 11 0 10 10 28 21
40 24 26 50 20 70 -17z m9 -69 c23 -23 19 -37 -14 -50 -20 -7 -20 -8 7 -20 39
-19 35 -48 -8 -56 -45 -8 -66 0 -58 23 3 10 12 23 20 29 11 10 10 12 -7 17
-13 3 -20 13 -20 29 0 48 45 63 80 28z m155 -126 c39 -43 90 -88 121 -106 48
-27 54 -33 54 -63 0 -40 -38 -90 -76 -99 -90 -23 -155 79 -173 271 -4 40 -4
73 -1 73 4 0 37 -34 75 -76z m-131 -36 c14 -22 1 -36 -42 -44 -30 -6 -32 -5
-32 24 0 17 6 33 13 36 22 9 50 2 61 -16z m16 -78 c0 -13 -10 -24 -26 -30 -41
-16 -54 -12 -54 14 0 27 11 34 53 35 21 1 27 -4 27 -19z m405 -50 l20 -9 -20
0 c-11 0 -27 4 -35 9 -13 9 -13 10 0 9 8 0 24 -4 35 -9z m-388 -16 c8 -20 -21
-44 -53 -44 -31 0 -38 26 -11 45 28 20 56 19 64 -1z m1181 -16 c46 -22 63 -47
81 -120 16 -68 -11 -128 -68 -150 -31 -11 -41 3 -41 57 0 22 -3 51 -7 63 -9
36 -23 6 -23 -50 0 -26 -4 -59 -10 -73 -8 -22 -15 -26 -42 -23 l-33 3 2 83 c2
48 -1 80 -7 77 -8 -5 -28 -68 -44 -138 -6 -23 -10 -27 -29 -21 -45 13 -49 24
-33 97 7 37 9 67 4 67 -10 0 -41 -68 -52 -115 -7 -28 -8 -29 -21 -11 -16 21
-11 60 16 122 18 43 107 129 157 151 34 16 93 8 150 -19z m-801 -10 c18 -14
16 -38 -2 -38 -11 0 -54 15 -73 26 -1 0 0 9 4 18 5 13 13 16 33 11 14 -4 32
-11 38 -17z m-337 -53 c0 -27 -80 -49 -94 -26 -10 16 5 40 32 49 31 11 62 -1
62 -23z m298 13 c5 -7 13 -23 16 -35 6 -20 4 -23 -18 -23 -21 0 -26 -5 -26
-26 0 -23 -3 -25 -25 -20 -20 5 -25 3 -25 -14 0 -27 -16 -25 -31 3 -12 21 -13
21 -22 -13 l-9 -34 -18 24 -18 25 -7 -28 c-9 -36 -24 -34 -32 5 l-6 31 -18
-21 c-9 -12 -22 -22 -28 -22 -14 0 -15 47 -1 55 6 3 10 11 10 17 0 6 -10 2
-23 -10 -13 -12 -31 -22 -41 -22 -26 0 -16 41 14 59 24 13 29 12 67 -12 41
-26 42 -26 87 -11 26 9 61 31 79 49 35 35 59 42 75 23z m-963 -157 l7 -43 -43
7 c-83 13 -83 12 -31 63 52 52 54 51 67 -27z m2040 -62 c125 -23 199 -86 231
-197 43 -148 -24 -266 -230 -404 -258 -172 -409 -204 -660 -139 -135 34 -185
62 -211 117 -23 48 -16 60 88 148 88 74 110 79 203 51 27 -8 51 -15 53 -15 2
0 -4 12 -14 26 -15 23 -15 28 -1 48 20 31 100 80 165 101 29 10 115 28 190 40
134 23 135 23 66 24 -83 1 -248 -22 -325 -46 -39 -12 -69 -31 -103 -65 -31
-31 -57 -48 -72 -48 -14 0 -25 3 -25 6 0 20 92 220 116 253 2 2 20 -4 41 -14
33 -16 44 -16 102 -6 72 14 195 64 255 105 44 29 50 30 131 15z m-2415 -9
c120 -13 241 -44 304 -78 60 -33 101 -80 177 -206 53 -87 57 -98 37 -92 -13 3
-35 6 -49 6 -18 0 -33 12 -56 44 -21 30 -48 52 -86 70 -65 30 -260 66 -357 65
-64 0 -62 -1 75 -30 232 -48 266 -61 319 -120 32 -36 43 -55 37 -63 -8 -9 6
-11 52 -8 57 3 67 0 122 -33 33 -20 79 -52 103 -72 39 -32 43 -39 38 -67 -7
-34 -47 -81 -88 -102 -46 -24 -309 -84 -369 -84 -185 0 -546 211 -634 371 -27
48 -30 63 -30 139 0 98 19 145 81 199 72 64 152 79 324 61z m1190 -106 c0 -29
-28 -46 -52 -33 -24 13 -23 35 3 53 27 19 49 10 49 -20z m504 -156 c-83 -163
-255 -248 -534 -264 -176 -10 -365 38 -474 122 -38 29 -90 94 -130 162 -15 25
26 -3 82 -57 62 -59 183 -122 287 -148 110 -27 313 -23 436 10 131 34 186 65
277 152 42 41 78 75 80 75 1 0 -9 -23 -24 -52z m-109 -44 c-40 -34 -135 -79
-210 -100 -94 -25 -332 -31 -435 -10 -101 21 -187 54 -242 96 -23 16 -40 30
-37 30 3 0 43 -11 90 -25 251 -76 534 -74 754 5 101 36 119 37 80 4z m-298
-271 c6 -16 -93 -27 -181 -20 -121 9 -122 21 -1 28 147 7 178 6 182 -8z m217
-44 c33 -49 98 -91 185 -120 36 -12 82 -30 102 -40 37 -19 94 -77 84 -87 -3
-3 -28 5 -55 18 -27 13 -52 21 -55 19 -3 -3 4 -23 15 -44 11 -22 20 -45 20
-53 0 -18 -39 -92 -49 -92 -13 0 -43 37 -78 98 -35 62 -39 59 -21 -17 6 -28 9
-53 6 -56 -3 -4 -44 13 -92 37 -71 35 -86 47 -86 66 0 37 -25 87 -54 105 -30
20 -86 93 -86 113 0 15 50 44 74 44 8 0 26 -19 40 -42 29 -49 33 -40 11 22
-11 32 -12 46 -4 56 6 8 13 14 14 14 1 0 14 -18 29 -41z m-714 9 c0 -13 -9
-38 -20 -56 -31 -51 -24 -50 30 3 l50 49 63 -33 c62 -33 127 -93 127 -117 0
-12 -178 -104 -200 -104 -24 0 3 74 43 118 16 17 17 22 5 22 -8 0 -38 -24 -67
-54 -43 -47 -51 -61 -51 -94 l0 -39 -90 -43 c-50 -23 -93 -40 -96 -37 -3 3 2
31 11 62 9 32 14 59 12 62 -3 2 -24 -30 -48 -71 -24 -41 -49 -75 -56 -76 -19
0 -63 64 -63 92 0 14 11 42 25 62 29 43 16 47 -39 10 -28 -19 -41 -23 -49 -15
-29 29 61 98 179 136 76 25 96 37 148 87 66 62 86 70 86 36z m574 -139 c35
-41 64 -105 52 -116 -10 -10 -131 46 -167 77 l-34 30 38 35 c44 42 55 39 111
-26z"/>
<path d="M2596 4225 c3 -11 17 -54 31 -95 14 -40 27 -107 30 -146 6 -71 5 -74
-25 -103 -50 -50 -113 -37 -148 31 -15 28 -14 39 1 127 10 53 24 114 31 135 8
22 12 41 10 43 -9 9 -48 -95 -68 -180 l-21 -87 -31 25 c-17 14 -48 37 -68 51
l-36 26 -46 -20 c-30 -14 -50 -31 -62 -54 l-16 -33 29 27 c39 38 82 52 117 38
53 -20 116 -71 142 -116 57 -98 160 -98 210 -1 29 55 13 154 -41 261 -25 50
-43 82 -39 71z"/>
<path d="M2550 4047 c-26 -13 -48 -65 -49 -113 -2 -63 78 -89 118 -38 53 67
-1 185 -69 151z m40 -52 c0 -18 -5 -25 -20 -25 -15 0 -20 7 -20 25 0 18 5 25
20 25 15 0 20 -7 20 -25z"/>
<path d="M2805 4040 c-11 -5 -38 -27 -60 -51 l-40 -43 40 31 c22 17 50 33 62
37 27 9 88 -18 108 -48 11 -15 15 -16 15 -5 0 19 -47 65 -80 77 -14 5 -34 6
-45 2z"/>
<path d="M2154 3887 c-52 -45 -11 -73 61 -43 43 18 44 31 5 51 -37 19 -34 19
-66 -8z"/>
<path d="M2899 3887 c-39 -33 -27 -47 42 -47 65 0 72 8 34 45 -30 30 -42 31
-76 2z"/>
<path d="M2160 3805 c-17 -20 -8 -50 16 -53 23 -3 49 21 39 38 -13 22 -43 30
-55 15z"/>
<path d="M2915 3790 c-8 -27 1 -40 30 -40 25 0 38 21 29 45 -9 22 -51 19 -59
-5z"/>
<path d="M2483 3474 c4 -22 7 -49 7 -61 0 -33 19 -28 31 7 6 17 16 30 22 30
13 0 -21 38 -47 52 -18 10 -19 7 -13 -28z"/>
<path d="M2648 3463 c-34 -33 -39 -36 -63 -25 -23 11 -25 10 -17 -4 6 -10 5
-27 -1 -44 -6 -15 -7 -35 -3 -45 6 -16 13 -12 50 28 23 26 50 47 59 47 16 0
57 49 57 69 0 24 -47 9 -82 -26z"/>
<path d="M2208 3430 l-33 -30 33 16 c47 23 94 11 144 -36 51 -49 71 -53 57
-10 -14 38 -91 90 -136 90 -22 0 -43 -9 -65 -30z"/>
<path d="M2832 3446 c-31 -17 -62 -65 -62 -96 0 -24 1 -24 33 12 69 78 107 84
174 25 l37 -32 -20 33 c-36 62 -108 88 -162 58z"/>
<path d="M1800 3413 l-35 -17 65 -6 c67 -7 97 -18 120 -44 11 -14 8 -16 -23
-16 -41 0 -89 -35 -114 -84 l-16 -31 37 37 c43 44 70 53 137 45 57 -7 61 2 26
54 -25 38 -97 79 -137 79 -14 -1 -41 -8 -60 -17z"/>
<path d="M3195 3411 c-43 -19 -70 -51 -81 -95 -6 -25 -6 -25 43 -19 51 6 94
-9 137 -46 18 -15 18 -15 8 4 -18 35 -50 58 -98 70 l-47 12 37 23 c25 15 59
24 102 28 68 5 81 16 38 32 -39 15 -95 12 -139 -9z"/>
<path d="M2851 3325 c-64 -55 -112 -179 -89 -231 24 -52 96 -61 158 -20 50 33
70 76 70 151 0 46 -4 59 -27 84 -41 44 -73 48 -112 16z m4 -69 c-19 -19 -45
-55 -56 -80 -22 -52 -33 -60 -23 -18 10 41 51 108 81 132 41 32 40 6 -2 -34z
m93 -55 c5 -32 -6 -71 -19 -71 -8 0 -10 13 -6 37 4 22 2 42 -6 51 -9 12 -8 14
8 11 12 -3 21 -14 23 -28z"/>
<path d="M2224 3329 c-31 -11 -72 -65 -80 -104 -10 -53 5 -93 48 -135 57 -54
86 -59 156 -23 52 26 57 31 54 58 -4 43 -68 170 -94 187 -32 20 -60 26 -84 17z
m108 -85 c18 -21 37 -83 31 -101 -6 -18 -23 -16 -23 2 0 35 -34 97 -62 111
-16 8 -26 19 -23 24 7 12 53 -10 77 -36z m-127 -44 c-8 -16 -15 -41 -15 -55 0
-33 -16 -24 -23 12 -4 20 1 35 16 51 29 31 40 28 22 -8z"/>
<path d="M2651 2924 c0 -11 3 -14 6 -6 3 7 2 16 -1 19 -3 4 -6 -2 -5 -13z"/>
<path d="M2662 2890 c-1 -8 -9 -58 -17 -110 -8 -52 -17 -167 -19 -255 -4 -158
-4 -158 4 -35 4 69 15 160 24 203 10 45 15 106 13 145 -2 37 -4 60 -5 52z"/>
<path d="M2380 2758 c0 -48 10 -78 26 -78 17 0 18 35 3 79 -14 40 -29 40 -29
-1z"/>
<path d="M2735 2778 c-7 -24 -25 -93 -25 -100 0 -5 6 -8 13 -8 8 0 22 17 31
39 14 30 16 43 7 60 -13 24 -20 26 -26 9z"/>
<path d="M1680 2179 c-27 -11 -60 -38 -60 -50 0 -4 21 -1 47 7 25 8 67 14 92
14 43 0 44 1 24 15 -29 21 -73 27 -103 14z"/>
<path d="M3750 1436 c-60 -22 -166 -79 -154 -83 6 -2 41 8 79 22 101 38 178
43 243 15 28 -12 52 -27 52 -33 0 -6 3 -8 6 -5 11 11 -26 54 -65 76 -44 25
-106 28 -161 8z"/>
<path d="M3973 1122 c-34 -34 -101 -87 -148 -118 -230 -150 -420 -186 -620
-119 -38 13 -71 22 -73 21 -1 -2 15 -15 35 -29 82 -55 222 -80 335 -57 140 27
314 114 421 210 57 51 121 134 115 148 -2 4 -31 -21 -65 -56z"/>
<path d="M3430 1136 c0 -22 103 -56 189 -63 87 -6 186 14 238 50 17 12 31 23
29 24 -2 2 -23 -4 -47 -14 -58 -22 -228 -21 -327 1 -88 19 -82 19 -82 2z"/>
<path d="M1274 1450 c-47 -11 -97 -45 -117 -80 l-19 -31 44 31 c78 55 210 51
364 -10 41 -17 78 -30 82 -30 24 1 -116 75 -178 94 -95 30 -137 36 -176 26z"/>
<path d="M1101 1192 c-1 -7 11 -36 25 -65 70 -137 312 -290 504 -317 74 -10
162 -2 231 22 37 13 132 68 126 74 -1 2 -35 -8 -73 -21 -180 -63 -360 -35
-567 87 -69 41 -195 155 -230 208 -9 14 -16 19 -16 12z"/>
<path d="M1244 1162 c14 -24 102 -64 169 -79 116 -24 248 -5 288 43 12 15 10
16 -31 10 -180 -25 -350 -16 -409 21 -13 8 -21 11 -17 5z"/>
</g>
</svg>