<?xml version="1.0" standalone="no"?>
<!DOCTYPE svg PUBLIC "-//W3C//DTD SVG 20010904//EN"
 "http://www.w3.org/TR/2001/REC-SVG-20010904/DTD/svg10.dtd">
<svg version="1.0" xmlns="http://www.w3.org/2000/svg"
 width="512.000000pt" height="512.000000pt" viewBox="0 0 512.000000 512.000000"
 preserveAspectRatio="xMidYMid meet">
<metadata>
Created by potrace 1.16, written by Peter Selinger 2001-2019
</metadata>
<g transform="translate(0.000000,512.000000) scale(0.100000,-0.100000)"
fill="#000000" stroke="none">
<path d="M2560 4525 c0 -17 -13 -57 -30 -90 -16 -33 -30 -68 -30 -78 0 -11 -9
-30 -19 -44 -16 -19 -18 -30 -11 -49 7 -18 5 -31 -8 -52 -15 -24 -22 -27 -61
-24 -50 4 -95 -22 -160 -93 -36 -39 -40 -41 -43 -22 -2 17 -13 4 -45 -54 -58
-104 -77 -181 -77 -309 0 -90 4 -115 27 -173 34 -85 18 -85 -40 2 -34 50 -43
58 -43 39 0 -47 42 -112 91 -138 45 -25 45 -26 36 -60 -6 -25 -4 -51 8 -95 19
-72 13 -94 -45 -170 -60 -78 -84 -139 -86 -224 l-3 -74 -53 -29 c-73 -40 -104
-72 -140 -147 -31 -61 -32 -70 -39 -230 -5 -144 -10 -176 -33 -241 -59 -166
-71 -382 -26 -469 54 -107 190 -89 337 44 34 30 64 55 67 55 14 0 2 -35 -72
-205 l-79 -180 -57 -31 c-32 -17 -94 -39 -139 -48 -239 -52 -431 -186 -484
-341 -11 -31 -18 -79 -18 -125 1 -92 31 -162 106 -244 57 -63 102 -83 199 -92
65 -6 72 -9 90 -39 36 -58 111 -71 213 -36 l56 20 20 -35 c11 -19 31 -38 43
-43 28 -10 123 11 178 39 l40 21 61 -43 c56 -40 65 -43 127 -43 61 0 71 3 110
34 l42 35 28 -27 c64 -61 184 -57 261 10 l41 34 62 -24 c35 -14 87 -30 116
-37 46 -11 56 -10 78 5 15 9 31 29 37 45 l10 27 59 -19 c107 -33 169 -21 223
43 25 31 30 33 105 35 48 2 93 9 114 19 80 38 161 162 175 268 25 195 -95 365
-347 491 -97 49 -140 90 -187 180 l-40 76 62 59 c78 75 91 121 74 257 -17 126
-47 271 -77 364 -24 77 -24 81 -9 138 12 47 12 66 3 92 -8 25 -8 48 1 95 6 34
11 78 11 97 0 32 -4 36 -67 67 -38 19 -97 41 -133 51 l-65 16 -6 92 c-6 96 -2
84 -101 273 -29 56 -30 59 -19 128 6 39 8 83 5 96 -4 15 -2 25 5 25 6 0 29 16
51 36 28 25 44 52 55 87 26 87 17 97 -23 23 -52 -97 -66 -94 -31 6 56 161 25
334 -90 503 l-21 30 0 -29 0 -30 -37 44 c-53 62 -117 100 -169 100 -47 0 -60
17 -48 64 4 19 0 33 -19 56 -15 17 -23 37 -20 48 2 11 -9 44 -26 74 -17 30
-31 63 -31 74 0 10 -5 26 -10 34 -7 12 -10 8 -10 -15z m22 -162 c24 -22 23
-49 -4 -56 -21 -6 -58 7 -58 21 0 11 30 52 37 52 4 0 15 -7 25 -17z m33 -155
c14 -29 39 -77 55 -107 23 -41 30 -66 30 -109 0 -56 -37 -192 -52 -192 -12 0
-10 15 12 77 27 77 26 97 -2 90 -37 -9 -92 23 -96 56 -2 19 1 27 12 27 9 0 16
-11 18 -27 3 -28 3 -28 16 -6 18 32 0 73 -32 73 -29 0 -43 -41 -27 -82 9 -24
7 -27 -21 -37 l-30 -11 7 -75 c4 -41 4 -75 1 -75 -3 0 -17 36 -31 81 -36 116
-34 162 18 275 38 86 44 94 70 94 23 0 31 -8 52 -52z m-193 -146 c-3 -52 1
-89 22 -165 14 -55 26 -101 26 -104 0 -3 -18 -2 -40 2 -22 4 -40 3 -40 -2 0
-4 -5 -15 -10 -23 -8 -12 -15 -9 -39 20 l-30 35 -1 -30 c-1 -46 -15 -63 -40
-47 -18 11 -20 10 -20 -18 0 -36 -9 -38 -39 -6 -31 33 -38 115 -17 188 18 64
85 145 155 190 71 45 79 40 73 -40z m381 13 c87 -70 119 -167 98 -295 -5 -33
-9 -43 -10 -26 -1 28 -2 28 -20 12 -18 -16 -20 -16 -35 6 -9 12 -16 28 -16 35
0 22 -23 15 -46 -14 l-21 -26 -26 37 c-25 37 -25 40 -10 80 17 46 22 154 10
204 -12 46 9 42 76 -13z m-166 -141 c7 -19 -11 -41 -21 -25 -4 6 -18 11 -32
11 -27 0 -33 -27 -11 -49 10 -10 7 -12 -13 -9 -19 2 -26 10 -28 31 -6 48 3 57
53 57 32 0 47 -5 52 -16z m-47 -145 c0 -57 -1 -60 -22 -57 -20 3 -23 10 -26
51 -3 46 3 56 46 66 1 1 2 -26 2 -60z m-90 -54 c0 -19 -7 -25 -42 -33 -24 -6
-58 -16 -76 -23 -28 -12 -34 -12 -43 1 -9 13 -10 13 -7 0 5 -17 -21 -50 -39
-50 -22 0 -16 58 6 65 11 3 23 15 26 26 6 19 8 19 19 3 9 -11 19 -15 31 -10
11 4 22 1 27 -6 5 -9 8 -6 8 10 0 14 6 22 18 22 9 0 26 7 36 15 24 18 36 11
36 -20z m218 -8 c3 -13 -4 -17 -27 -17 -38 0 -49 17 -19 29 29 12 42 9 46 -12z
m97 -27 c23 -44 19 -53 -15 -35 -16 8 -36 15 -45 15 -21 0 -19 9 8 31 30 25
34 24 52 -11z m-79 -30 c68 -24 131 -59 158 -89 15 -17 2 -13 -60 18 -131 65
-235 76 -402 41 -66 -13 -112 -30 -154 -55 -70 -41 -92 -40 -26 1 82 52 133
74 198 86 36 6 70 15 75 21 15 13 146 -1 211 -23z m162 -29 c3 -20 1 -21 -17
-12 -12 7 -18 17 -14 27 8 21 27 12 31 -15z m-648 -10 c0 -21 -26 -36 -36 -20
-6 11 13 39 27 39 5 0 9 -9 9 -19z m356 -16 c4 -10 20 -15 50 -15 57 0 119
-31 144 -72 20 -33 19 -51 -2 -30 -20 20 -62 14 -127 -19 -58 -29 -82 -52 -68
-66 3 -3 31 9 63 26 68 37 114 47 143 32 33 -18 25 -30 -18 -24 -30 4 -49 0
-77 -18 -45 -28 -29 -37 27 -15 49 20 59 20 59 1 0 -23 -37 -37 -93 -35 -29 1
-58 1 -64 1 -22 -2 -14 -29 13 -50 32 -25 92 -28 136 -5 l31 16 -5 -38 c-15
-102 -78 -214 -148 -260 -118 -78 -235 -20 -333 166 -40 76 -45 94 -51 172
l-6 86 51 56 c39 43 62 59 102 71 62 18 107 19 108 3 1 -7 2 -29 3 -48 1 -38
25 -52 51 -30 18 15 20 66 4 76 -7 4 -10 1 -7 -7 7 -17 -10 -51 -21 -44 -5 2
-9 23 -9 45 -1 33 3 40 19 40 11 0 22 -7 25 -15z m-396 -236 c0 -11 -4 -17
-10 -14 -5 3 -10 15 -10 26 0 11 5 17 10 14 6 -3 10 -15 10 -26z m89 -176 c1
-17 -5 -23 -19 -23 -24 0 -24 1 -8 53 11 38 13 39 19 16 4 -13 7 -34 8 -46z
m568 -25 c-3 -7 -5 -2 -5 12 0 14 2 19 5 13 2 -7 2 -19 0 -25z m-563 -47 c3
-4 -1 -17 -9 -27 -10 -15 -16 -16 -26 -7 -6 6 -9 19 -6 27 7 17 32 22 41 7z
m574 -14 c2 -10 -3 -17 -11 -17 -16 0 -30 24 -19 34 10 10 27 1 30 -17z m-722
-104 c-15 -21 -45 -65 -67 -98 -40 -59 -46 -43 -8 23 23 40 91 123 97 118 2
-2 -8 -21 -22 -43z m370 -88 c24 -11 49 -15 73 -12 34 5 39 2 85 -49 56 -63
56 -65 -38 -126 -45 -29 -69 -38 -100 -38 -41 1 -41 1 -16 15 24 14 24 14 -20
15 -28 0 -56 8 -75 20 -16 11 -44 29 -62 41 l-32 20 19 32 c10 18 24 61 31 97
18 101 16 99 59 48 22 -25 56 -53 76 -63z m514 -29 c14 -20 14 -20 -4 -6 -26
20 -96 109 -96 122 0 9 65 -67 100 -116z m-625 -278 c50 -26 78 -48 96 -75 33
-52 77 -58 108 -15 12 17 21 35 21 40 0 9 62 50 182 121 l41 24 -7 -54 c-4
-30 -16 -73 -28 -97 -11 -23 -17 -49 -14 -57 3 -8 2 -15 -3 -15 -4 0 -16 -18
-26 -40 -31 -68 -126 -147 -198 -164 -36 -8 -117 27 -171 74 -38 34 -144 160
-163 194 -9 17 -11 16 -17 -10 -4 -15 -16 -40 -27 -55 -10 -15 -35 -62 -55
-103 -31 -65 -36 -84 -32 -127 8 -84 28 -85 28 -1 0 59 4 76 20 92 30 30 40
25 40 -20 0 -52 19 -140 31 -140 5 0 9 14 9 31 0 17 5 39 11 51 14 26 73 50
104 42 28 -7 24 -24 -6 -24 -10 0 -28 -9 -40 -21 -19 -19 -20 -28 -14 -122 4
-64 3 -112 -4 -129 -10 -27 -83 -88 -106 -88 -6 0 -21 20 -33 45 -26 54 -26
55 -7 55 8 0 15 -4 15 -10 0 -5 5 -10 10 -10 6 0 10 7 10 15 0 35 -65 181
-110 248 -27 40 -52 85 -56 101 -8 33 -24 17 -24 -24 0 -26 20 -109 35 -143 7
-17 4 -18 -31 -11 -22 4 -67 15 -100 25 l-61 19 1 153 c1 142 3 156 27 207 30
63 84 120 138 147 20 9 74 22 121 28 l85 11 65 -66 c41 -42 91 -79 135 -102z
m-39 141 c24 -16 77 -46 118 -65 l74 -35 44 22 c23 12 70 39 103 62 33 22 52
30 41 19 -34 -39 -144 -104 -185 -109 -32 -4 -53 1 -107 28 -61 31 -161 108
-141 109 5 0 28 -14 53 -31z m494 8 c0 -16 -12 -33 -37 -50 -46 -33 -59 -25
-17 11 17 15 34 35 37 45 9 24 17 21 17 -6z m-496 -61 c14 -5 16 -10 9 -17 -8
-8 -19 -4 -37 12 -14 12 -26 27 -26 32 0 6 8 3 18 -5 9 -8 26 -18 36 -22z
m644 -16 l3 -44 19 42 c22 48 36 53 50 18 5 -13 14 -27 19 -31 21 -13 10 -36
-49 -101 -53 -58 -73 -94 -53 -94 3 0 21 11 39 25 18 14 34 25 36 25 2 0 2
-28 1 -62 -1 -35 0 -58 2 -53 10 23 65 248 65 268 0 18 2 19 10 7 5 -8 10 -51
10 -95 0 -121 -43 -279 -128 -470 -22 -50 -61 -151 -87 -225 -26 -74 -61 -164
-78 -200 -37 -78 -130 -175 -202 -211 -46 -22 -61 -24 -185 -23 -151 1 -194
12 -266 67 -76 57 -76 61 -3 182 35 58 79 125 97 150 33 45 102 90 109 70 11
-32 73 -113 102 -132 66 -45 201 -24 266 41 14 14 25 23 25 20 0 -13 -38 -76
-82 -136 -73 -99 -139 -155 -207 -174 -31 -8 -60 -17 -66 -18 -27 -8 64 -17
109 -12 72 9 146 55 206 127 59 71 95 138 148 281 44 115 92 298 79 298 -3 0
-35 -36 -72 -80 -58 -70 -68 -79 -85 -70 -20 10 -19 12 5 60 35 70 79 239 112
433 27 166 45 205 51 117z m-129 -24 c-9 -8 -10 -7 -5 7 3 10 7 28 7 40 2 16
3 14 6 -7 3 -16 -1 -34 -8 -40z m-149 14 c-24 -15 -37 -11 -16 5 11 8 22 12
25 9 3 -3 -1 -9 -9 -14z m-310 -15 c0 -9 -6 -12 -15 -9 -8 4 -15 10 -15 15 0
5 7 9 15 9 8 0 15 -7 15 -15z m846 -20 c18 -44 18 -142 -1 -221 -19 -84 -56
-164 -117 -256 -49 -76 -62 -91 -53 -65 2 6 24 84 49 172 47 170 61 233 72
330 3 33 8 63 11 68 9 16 25 5 39 -28z m-581 4 c-4 -5 -13 -9 -22 -9 -13 0
-13 3 -3 15 13 15 35 11 25 -6z m-202 -9 c20 -18 -13 -18 -34 1 l-24 20 25 -7
c14 -3 29 -10 33 -14z m147 -4 c0 -2 -7 -6 -15 -10 -8 -3 -15 -1 -15 4 0 6 7
10 15 10 8 0 15 -2 15 -4z m-88 -56 c6 0 8 9 5 20 -7 25 5 26 27 1 14 -15 15
-24 6 -40 -13 -25 -45 -28 -54 -5 -3 9 -5 28 -5 42 2 24 2 24 6 5 2 -13 9 -23
15 -23z m368 25 c0 -16 -9 -19 -34 -9 -25 9 -19 24 9 24 16 0 25 -6 25 -15z
m-32 -52 c13 -24 4 -43 -19 -43 -19 0 -24 16 -13 44 8 21 21 20 32 -1z m-628
-89 c0 -14 -21 -19 -33 -7 -9 9 13 34 24 27 5 -3 9 -12 9 -20z m623 -6 c7 -21
-12 -48 -34 -48 -22 0 -34 22 -25 45 7 18 53 20 59 3z m-643 -35 c0 -5 -7 -17
-15 -27 -11 -15 -18 -17 -27 -8 -8 8 -8 15 2 27 13 15 40 21 40 8z m50 -43 c0
-5 -7 -18 -15 -27 -8 -10 -21 -27 -29 -38 -15 -20 -15 -20 -16 4 0 14 10 35
22 48 23 24 38 30 38 13z m509 -22 c-8 -14 -14 -17 -21 -10 -15 15 -2 43 16
36 12 -5 13 -10 5 -26z m81 -15 c-1 -33 -15 -53 -36 -53 -24 0 -30 14 -18 44
6 16 54 23 54 9z m-120 -48 c0 -13 -59 -75 -71 -75 -4 0 -11 9 -14 20 -3 11
-15 20 -26 20 -26 0 -25 -35 1 -53 17 -12 18 -16 7 -25 -11 -9 -17 -6 -27 14
-8 14 -22 30 -32 35 -24 13 -23 29 2 29 18 0 103 42 124 61 11 10 36 -8 36
-26z m-274 -29 c10 -8 16 -17 13 -20 -3 -4 -17 2 -30 13 -27 23 -13 28 17 7z
m374 -43 c0 -7 -11 -13 -25 -13 -28 0 -34 -24 -8 -34 14 -6 14 -9 -5 -27 -12
-11 -22 -26 -22 -34 0 -8 -4 -15 -9 -15 -5 0 -23 -21 -40 -48 -34 -54 -72 -91
-117 -117 -31 -18 -32 -18 -69 10 -34 27 -85 116 -85 151 0 19 3 18 46 -11 42
-29 64 -31 103 -10 32 16 125 115 153 162 19 31 19 31 48 15 17 -9 30 -23 30
-29z m-307 3 c-13 -18 -21 -21 -31 -14 -16 14 3 38 30 38 18 0 18 -1 1 -24z
m-669 -52 c22 -21 20 -31 -6 -38 -18 -4 -20 -8 -11 -17 9 -9 16 -9 28 1 14 12
18 11 25 -1 7 -10 5 -15 -6 -17 -20 -5 -11 -27 10 -26 11 1 16 -4 14 -15 -3
-13 -19 -17 -87 -19 l-83 -3 7 48 c4 26 13 52 21 56 8 4 14 16 14 25 0 43 35
46 74 6z m547 -14 c14 -25 16 -37 7 -47 -7 -9 -7 -13 0 -13 6 0 17 -18 23 -41
13 -42 5 -58 -28 -59 -13 0 -33 83 -21 88 4 2 1 10 -7 19 -18 17 -21 97 -3 91
6 -2 19 -19 29 -38z m169 25 c16 -19 5 -47 -16 -43 -27 5 -42 37 -24 48 20 13
26 12 40 -5z m695 -5 c3 -5 -1 -10 -9 -10 -9 0 -16 5 -16 10 0 6 4 10 9 10 6
0 13 -4 16 -10z m-19 -29 c-4 -5 -3 -17 0 -26 6 -15 8 -15 24 0 20 18 34 6 24
-20 -4 -10 -14 -15 -25 -12 -10 3 -20 -2 -23 -10 -5 -12 1 -14 34 -8 25 4 40
3 40 -3 0 -10 -54 -24 -142 -38 -39 -7 -42 -6 -29 9 7 10 26 17 41 17 14 0 29
2 32 5 10 10 -5 65 -18 65 -17 0 -18 17 -1 23 21 9 48 7 43 -2z m41 3 c-3 -3
-12 -4 -19 -1 -8 3 -5 6 6 6 11 1 17 -2 13 -5z m-87 -59 c0 -16 -27 -32 -37
-22 -3 4 -3 13 0 22 8 20 37 20 37 0z m-392 -71 c2 -11 -4 -27 -13 -34 -13
-11 -19 -11 -31 2 -13 13 -14 20 -4 37 14 27 44 24 48 -5z m-710 -57 c11 -24
30 -54 43 -65 27 -25 23 -33 -9 -21 -14 5 -32 28 -45 59 -12 27 -25 50 -29 50
-19 0 -5 -42 32 -98 42 -66 41 -78 -4 -37 -46 43 -69 118 -44 143 21 21 37 13
56 -31z m1221 29 c15 -18 32 -160 25 -207 -7 -44 -41 -83 -131 -149 -50 -36
-63 -51 -68 -80 l-7 -35 -13 38 c-16 47 -39 74 -83 96 l-34 17 96 91 c53 50
96 94 96 98 0 3 -12 5 -27 3 -22 -2 -28 2 -34 22 -7 24 -12 90 -6 90 1 0 20 7
42 15 52 18 129 19 144 1z m-1282 -105 c16 -43 15 -44 -8 -62 -71 -53 -234
-111 -274 -95 -51 19 -59 166 -12 214 25 25 31 26 119 24 51 -1 107 2 123 6
27 8 30 6 33 -17 1 -14 10 -46 19 -70z m429 78 c3 -6 -3 -20 -14 -32 -19 -19
-22 -19 -28 -4 -13 35 23 66 42 36z m284 -28 c0 -21 -26 -36 -36 -20 -9 15 3
39 21 39 8 0 15 -9 15 -19z m-221 -46 c28 -31 64 -32 115 -4 33 17 38 18 32 4
-3 -9 -6 -25 -6 -36 0 -16 -3 -17 -19 -8 -26 17 -54 4 -46 -21 4 -11 2 -20 -4
-20 -6 0 -11 9 -11 20 0 24 -38 28 -46 5 -11 -27 -26 -16 -19 14 7 34 -6 46
-34 31 -25 -13 -38 4 -21 25 17 21 31 18 59 -10z m501 -270 c35 -18 70 -61 70
-86 0 -15 -9 -10 -40 21 -23 23 -52 45 -66 50 -14 6 -22 14 -19 20 8 14 21 13
55 -5z m-42 -65 c39 -24 56 -62 47 -108 l-6 -34 -26 52 c-16 33 -39 60 -59 72
-34 20 -37 38 -6 38 9 0 32 -9 50 -20z m-42 -54 c19 -19 34 -42 34 -51 0 -12
-7 -7 -23 16 -12 19 -38 42 -57 51 -30 16 -32 18 -11 18 13 0 38 -15 57 -34z
m-46 -12 c22 -20 43 -47 46 -60 7 -27 -3 -64 -17 -64 -6 0 -7 4 -4 10 11 18
-32 97 -63 116 -17 10 -29 21 -26 26 9 15 23 8 64 -28z m-732 -49 c43 -26 148
-54 212 -56 l35 -1 -30 -9 c-49 -16 -169 -3 -223 25 -48 25 -92 60 -92 75 0
17 15 20 34 6 12 -8 40 -26 64 -40z m681 9 c39 -32 42 -82 9 -115 -29 -28
-156 -89 -184 -89 -43 0 -211 87 -196 102 7 7 29 -1 69 -26 57 -35 143 -61
130 -39 -4 6 -19 13 -34 16 -16 3 -37 13 -48 21 -19 15 -18 15 23 16 30 0 42
4 42 15 0 17 -27 19 -65 5 -19 -7 -33 -6 -52 4 -32 16 -29 18 77 49 47 14 108
34 135 45 63 26 58 27 94 -4z m-714 -75 c37 -17 76 -24 152 -27 l102 -5 -25
-20 c-33 -25 -153 -35 -208 -17 -47 15 -106 71 -106 100 0 22 1 22 18 7 10 -9
40 -26 67 -38z m1172 -24 l28 -24 -49 14 c-27 8 -60 15 -73 15 -14 0 -21 4
-18 10 12 20 83 11 112 -15z m-797 -68 c30 -18 64 -37 75 -42 18 -7 18 -8 2
-12 -21 -5 -90 27 -132 62 -44 36 -10 31 55 -8z m-439 -23 c61 -22 93 -27 179
-28 70 -1 116 4 138 13 46 19 64 1 25 -26 -61 -43 -97 -55 -182 -61 -79 -4
-132 -19 -145 -40 -3 -5 12 -4 34 1 32 9 56 7 122 -9 78 -18 83 -21 89 -49 5
-22 7 -24 8 -8 1 28 16 37 41 23 41 -22 16 -139 -46 -213 -50 -60 -131 -116
-229 -159 -37 -16 -38 -16 -15 0 58 40 119 106 149 161 45 84 39 99 -15 41
-179 -191 -521 -252 -720 -129 -19 11 -34 16 -34 10 0 -20 73 -83 124 -108
l51 -25 -63 5 c-80 7 -168 49 -200 96 -47 72 -54 177 -17 256 44 93 201 203
343 240 161 41 264 44 363 9z m1303 6 c188 -50 323 -157 369 -294 21 -62 21
-109 2 -168 -29 -84 -97 -133 -202 -148 -60 -8 -67 -1 -21 19 46 21 115 87
127 122 l10 30 -31 -26 c-79 -67 -189 -98 -343 -97 -135 0 -281 29 -365 70
-45 23 -58 26 -51 14 31 -58 178 -130 342 -167 l64 -15 -90 6 c-49 3 -124 15
-165 25 -94 24 -226 88 -265 129 l-30 31 25 20 c67 52 166 101 259 128 57 17
105 31 107 31 15 0 -1 18 -23 27 -16 6 -43 21 -60 33 -18 12 -33 17 -33 12 0
-6 15 -19 33 -31 l32 -21 -56 0 c-34 0 -96 -12 -154 -30 -54 -16 -101 -30
-106 -30 -11 0 -29 67 -29 111 0 35 1 36 53 48 28 6 86 15 127 18 89 7 113 -3
180 -71 41 -43 70 -58 70 -37 0 5 -23 26 -51 47 -45 35 -48 39 -27 42 13 1 43
7 68 13 122 29 204 30 315 4 11 -3 1 4 -23 16 -64 30 -165 49 -271 49 -109 0
-158 12 -203 51 l-33 28 50 1 c28 1 86 7 130 14 118 19 182 18 269 -4z m-889
-53 c21 -16 8 -28 -23 -21 -12 4 -19 11 -15 20 6 17 14 18 38 1z m286 -21
c-11 -13 -130 -40 -138 -32 -5 4 114 43 136 45 10 1 11 -2 2 -13z m-116 -222
c6 -94 -3 -125 -25 -84 -18 34 -25 157 -10 175 21 25 27 7 35 -91z m50 31 c4
-42 5 -78 2 -81 -7 -7 -37 92 -37 121 0 22 8 35 21 35 4 0 10 -34 14 -75z
m-130 8 c-10 -89 -30 -158 -60 -209 -15 -25 -28 -44 -30 -42 -3 2 5 32 15 67
11 34 27 102 36 152 12 63 21 89 31 89 12 0 13 -11 8 -57z m-81 -14 c-1 -67
-34 -182 -66 -230 -35 -52 -153 -106 -296 -135 -158 -32 -176 -29 -62 10 52
18 119 45 149 60 114 58 196 167 222 294 11 54 16 62 34 60 18 -3 20 -10 19
-59z m247 -255 c8 -10 34 -30 58 -46 49 -31 48 -37 -2 -12 -42 22 -107 73
-107 85 0 13 32 -5 51 -27z m-94 -104 c6 0 25 -13 41 -30 17 -16 40 -30 51
-30 11 0 22 -4 25 -9 7 -11 -43 -18 -119 -17 -46 1 -59 4 -57 15 2 11 0 12
-10 4 -7 -6 -42 -12 -78 -14 -61 -4 -65 -3 -68 19 -4 26 13 30 26 6 7 -13 13
-14 28 -6 18 10 18 11 2 17 -21 8 -16 20 14 36 18 10 20 9 16 -9 -3 -11 -2
-26 3 -33 6 -10 9 -11 9 -1 0 6 9 12 20 12 11 0 20 5 20 11 0 6 -9 13 -20 16
-11 3 -20 9 -20 13 0 8 24 20 39 20 12 0 32 -50 24 -62 -4 -8 0 -9 11 -5 10 4
22 7 27 7 17 0 9 22 -16 42 -14 11 -25 24 -25 30 0 7 10 2 23 -10 13 -12 28
-22 34 -22z m-237 -69 c0 -12 -20 -25 -27 -18 -7 7 6 27 18 27 5 0 9 -4 9 -9z
m-370 -76 c0 -14 5 -25 10 -25 6 0 10 9 10 20 0 22 15 27 26 9 3 -6 9 -7 13
-2 3 5 20 6 36 3 29 -6 29 -6 -19 -23 -27 -9 -71 -17 -98 -17 -45 0 -48 2 -48
25 0 14 5 25 10 25 6 0 10 -9 10 -20 0 -28 17 -25 24 5 4 14 11 25 16 25 6 0
10 -11 10 -25z m1084 -2 c11 -28 -5 -36 -70 -30 -67 5 -138 37 -101 45 10 2
27 -4 38 -14 17 -16 19 -16 19 -1 0 27 46 22 55 -5 6 -23 8 -22 20 19 5 16 32
6 39 -14z m33 21 c-3 -3 -12 -4 -19 -1 -8 3 -5 6 6 6 11 1 17 -2 13 -5z
m-1280 -10 c-3 -3 -12 -4 -19 -1 -8 3 -5 6 6 6 11 1 17 -2 13 -5z m586 -2 l49
-7 -22 -27 c-25 -32 -89 -52 -137 -43 -43 8 -110 64 -91 76 15 10 131 10 201
1z m367 -1 c0 -5 -14 -21 -30 -35 -83 -69 -230 -54 -230 24 0 11 44 16 163 18
53 1 97 -2 97 -7z m483 2 c-24 -2 -62 -2 -85 0 -24 2 -5 4 42 4 47 0 66 -2 43
-4z"/>
<path d="M2560 4135 c0 -36 18 -47 38 -22 13 16 -3 57 -23 57 -11 0 -15 -10
-15 -35z"/>
<path d="M2373 3493 c-7 -2 -13 -8 -13 -12 0 -9 130 -71 148 -71 19 0 14 -18
-9 -31 -29 -15 -102 -6 -136 17 l-28 19 40 6 40 5 -38 8 c-101 22 -82 -84 21
-115 35 -10 48 -9 87 5 45 18 45 18 45 65 0 55 -16 75 -77 97 -40 14 -60 16
-80 7z"/>
<path d="M2571 3272 c-1 -38 -5 -52 -13 -50 -7 3 -14 17 -16 32 -3 22 -6 25
-18 15 -21 -17 -17 -47 11 -74 l24 -25 -29 0 c-16 0 -32 -5 -35 -10 -9 -15 22
-59 51 -72 33 -15 83 9 108 52 l19 33 -23 -6 c-13 -3 -36 -3 -51 0 l-28 5 30
25 c33 29 38 53 9 53 -13 0 -22 9 -26 28 -11 49 -12 48 -13 -6z m9 -132 c0 -5
-9 -10 -19 -10 -11 0 -23 5 -26 10 -4 6 5 10 19 10 14 0 26 -4 26 -10z"/>
<path d="M3059 2663 c-9 -10 -25 -23 -35 -30 -18 -11 -18 -12 1 -12 26 -1 65
26 65 45 0 19 -12 18 -31 -3z"/>
<path d="M2845 2440 c-3 -5 -1 -10 4 -10 6 0 11 5 11 10 0 6 -2 10 -4 10 -3 0
-8 -4 -11 -10z"/>
<path d="M2699 2291 c-22 -18 -23 -21 -8 -36 14 -14 17 -14 33 4 12 14 15 24
9 36 -9 15 -12 14 -34 -4z"/>
<path d="M1834 2179 c-8 -14 11 -33 25 -25 6 4 11 11 11 16 0 13 -29 20 -36 9z"/>
<path d="M1810 2132 c0 -5 7 -13 16 -16 10 -4 14 -1 12 6 -5 15 -28 23 -28 10z"/>
<path d="M1790 2074 c0 -10 7 -14 22 -12 32 5 35 28 4 28 -17 0 -26 -5 -26
-16z"/>
<path d="M1860 2082 c0 -11 22 -32 32 -32 5 0 4 9 -2 20 -11 20 -30 28 -30 12z"/>
<path d="M1755 1170 c-47 -12 -77 -26 -114 -54 -41 -30 -41 -30 36 -12 32 8
113 20 181 27 67 7 122 16 122 19 0 7 -143 31 -175 29 -11 -1 -33 -5 -50 -9z"/>
<path d="M2677 594 c-8 -8 1 -24 14 -24 5 0 9 7 9 15 0 15 -12 20 -23 9z"/>
</g>
</svg>